<mxfile host="app.diagrams.net" modified="2023-11-10T09:40:50.948Z" agent="Mozilla/5.0 (Macintosh; Intel Mac OS X 10_15_7) AppleWebKit/537.36 (KHTML, like Gecko) Chrome/119.0.0.0 Safari/537.36" etag="-z7s2Gvd3YtRFRJymmcz" version="21.7.2" type="device">
  <diagram name="Page-1" id="fCasf8koWe8ImxkMl9RP">
    <mxGraphModel dx="1499" dy="1003" grid="1" gridSize="10" guides="1" tooltips="1" connect="1" arrows="1" fold="1" page="1" pageScale="1" pageWidth="850" pageHeight="1100" math="0" shadow="0">
      <root>
        <mxCell id="0" />
        <mxCell id="1" parent="0" />
        <mxCell id="oh0SNRpLHBO2t_VoiP5i-1" value="" style="ellipse;whiteSpace=wrap;html=1;aspect=fixed;fillColor=#66CC00;strokeColor=none;" vertex="1" parent="1">
          <mxGeometry x="280" y="360" width="200" height="200" as="geometry" />
        </mxCell>
        <mxCell id="oh0SNRpLHBO2t_VoiP5i-2" value="" style="triangle;whiteSpace=wrap;html=1;strokeColor=none;rotation=-90;" vertex="1" parent="1">
          <mxGeometry x="298.45" y="358.45" width="163.12" height="161.75" as="geometry" />
        </mxCell>
      </root>
    </mxGraphModel>
  </diagram>
</mxfile>
